<svg xmlns="http://www.w3.org/2000/svg" viewBox="0 0 24 24"><path d="M5 15.001a.5.5 0 0 1-.5-.5v-5a.5.5 0 0 1 1 0v5a.5.5 0 0 1-.5.5zM11 15.001a.5.5 0 0 1-.5-.5v-4.5h-.09l-.92 4.598a.5.5 0 0 1-.98 0l-.92-4.598H7.5v4.5a.5.5 0 0 1-1 0v-5a.5.5 0 0 1 .5-.5h1a.5.5 0 0 1 .49.402L9 11.951l.51-2.549a.5.5 0 0 1 .49-.401h1a.5.5 0 0 1 .5.5v5a.5.5 0 0 1-.5.5zM14 15.001h-1a.5.5 0 0 1-.5-.5v-5a.5.5 0 0 1 .5-.5h1c.827 0 1.5.673 1.5 1.5v3c0 .827-.673 1.5-1.5 1.5zm-.5-1h.5a.5.5 0 0 0 .5-.5v-3a.5.5 0 0 0-.5-.5h-.5v4zM17 15.001a.5.5 0 0 1-.5-.5v-5a.5.5 0 0 1 1 0v5a.5.5 0 0 1-.5.5z"/><path d="M18 15.001c-.827 0-1.5-.673-1.5-1.5v-2c0-.827.673-1.5 1.5-1.5s1.5.673 1.5 1.5v2c0 .827-.673 1.5-1.5 1.5zm0-4a.5.5 0 0 0-.5.5v2a.5.5 0 0 0 1 0v-2a.5.5 0 0 0-.5-.5z"/><path d="M21 17.001H3a2.503 2.503 0 0 1-2.5-2.5v-5c0-1.378 1.122-2.5 2.5-2.5h18c1.378 0 2.5 1.122 2.5 2.5v5c0 1.378-1.122 2.5-2.5 2.5zm-18-9c-.827 0-1.5.673-1.5 1.5v5c0 .827.673 1.5 1.5 1.5h18c.827 0 1.5-.673 1.5-1.5v-5c0-.827-.673-1.5-1.5-1.5H3z"/></svg>