<?xml version="1.0" standalone="no"?>
<!DOCTYPE svg PUBLIC "-//W3C//DTD SVG 20010904//EN"
 "http://www.w3.org/TR/2001/REC-SVG-20010904/DTD/svg10.dtd">
<svg version="1.0" xmlns="http://www.w3.org/2000/svg"
 width="512.000000pt" height="512.000000pt" viewBox="0 0 512.000000 512.000000"
 preserveAspectRatio="xMidYMid meet">

<g transform="translate(0.000000,512.000000) scale(0.100000,-0.100000)"
fill="#000000" stroke="none">
<path d="M3446 4752 c-2 -4 -6 -68 -7 -142 l-2 -135 29 0 c27 0 29 3 35 50 l5
50 25 -52 c22 -47 27 -53 57 -53 17 0 32 3 32 6 0 4 -14 30 -30 60 -30 51 -30
53 -10 59 12 4 28 22 37 40 33 69 -22 125 -121 125 -25 0 -47 -4 -50 -8z m108
-69 c8 -21 -17 -48 -38 -40 -9 4 -16 18 -16 32 0 20 5 25 24 25 13 0 27 -8 30
-17z"/>
<path d="M3662 4668 c-6 -40 -14 -103 -18 -139 l-6 -66 80 -9 c77 -9 81 -9 86
11 3 11 6 23 6 26 0 4 -22 9 -48 13 -57 7 -62 11 -55 37 3 12 14 19 29 19 20
0 24 5 24 30 0 23 -4 30 -20 30 -15 0 -20 7 -20 26 0 25 1 25 55 19 46 -6 55
-5 55 8 0 8 3 22 6 30 4 12 -7 17 -53 22 -32 3 -70 8 -84 11 -26 5 -27 3 -37
-68z"/>
<path d="M3911 4662 c-11 -21 -36 -78 -56 -127 -29 -70 -34 -90 -23 -96 26
-17 46 -9 57 22 13 39 34 33 41 -12 4 -26 10 -35 28 -37 l23 -3 -3 143 c-3
139 -4 143 -25 146 -17 3 -27 -6 -42 -36z m25 -129 c-2 -3 -9 -2 -14 1 -7 4
-6 20 1 44 l12 37 3 -39 c2 -21 1 -40 -2 -43z"/>
<path d="M4076 4661 c-12 -18 -67 -244 -63 -255 3 -7 26 -17 52 -23 43 -10 48
-9 77 15 66 55 90 177 46 225 -22 24 -104 52 -112 38z m72 -130 c4 -34 -19
-71 -44 -71 -21 0 -25 15 -13 51 6 19 13 40 15 47 8 27 39 8 42 -27z"/>
<path d="M1069 4625 c-14 -7 -31 -26 -38 -41 -7 -15 -208 -626 -447 -1358
-412 -1261 -435 -1333 -424 -1369 6 -20 21 -44 33 -52 12 -7 326 -113 697
-234 371 -122 682 -224 690 -227 19 -8 -42 -25 -230 -63 -303 -62 -640 -97
-1043 -109 l-249 -7 -29 -33 -29 -32 0 -393 c0 -371 1 -394 20 -424 26 -44 54
-47 310 -39 807 25 1438 139 1990 358 157 62 376 169 500 243 52 32 100 58
105 58 6 0 218 -68 472 -151 253 -84 476 -152 495 -152 36 0 72 20 88 50 17
32 880 2680 880 2701 0 35 -30 80 -63 94 -18 7 -716 237 -1552 510 -836 273
-1650 539 -1808 591 -159 52 -301 94 -315 94 -15 -1 -39 -7 -53 -15z m670
-361 c930 -304 1073 -351 1681 -549 1062 -346 1005 -325 1008 -360 4 -46 -72
-267 -95 -276 -10 -3 -51 -12 -91 -19 -88 -16 -83 -11 -156 -186 -90 -218
-171 -464 -156 -474 7 -4 40 -11 74 -15 33 -3 73 -9 87 -12 l26 -5 -75 -231
c-41 -128 -78 -236 -82 -240 -4 -5 -45 10 -90 33 -45 23 -84 39 -86 37 -2 -2
-50 -144 -106 -315 l-101 -311 75 -83 75 -83 -44 -137 c-32 -101 -50 -142 -66
-153 -20 -13 -39 -9 -217 49 l-195 64 -46 99 -46 99 -285 92 c-156 50 -289 92
-294 92 -7 0 -7 -26 -1 -75 5 -42 7 -78 4 -81 -4 -5 -316 91 -324 100 -1 1 3
37 11 80 10 56 10 79 2 82 -6 2 -90 29 -185 60 -96 31 -180 58 -186 60 -6 3
-26 -27 -45 -66 -19 -38 -39 -70 -45 -70 -13 0 -276 88 -283 94 -2 3 18 31 47
61 28 31 51 60 51 64 0 3 -126 48 -280 99 l-281 93 -86 -52 c-48 -29 -94 -52
-103 -52 -8 1 -113 33 -233 73 -199 65 -217 73 -223 97 -7 26 2 56 491 1548
107 325 216 661 244 749 28 87 56 165 62 172 6 8 23 14 37 14 14 0 253 -75
531 -166z m-35 -3006 c9 -34 8 -35 -20 -42 -31 -8 -30 -8 -39 26 -5 20 -3 27
12 31 35 9 41 7 47 -15z m107 12 c5 0 9 -4 9 -10 0 -5 -11 -10 -25 -10 -16 0
-25 6 -25 16 0 11 5 14 16 10 9 -3 20 -6 25 -6z m-223 -52 c2 -19 -2 -28 -17
-33 -28 -8 -41 1 -41 30 0 42 53 46 58 3z m707 -106 l390 -128 -70 -39 c-151
-85 -527 -242 -625 -262 -28 -5 -29 -3 -54 78 -14 46 -50 163 -80 259 -30 96
-53 177 -50 180 3 3 26 13 52 22 26 9 47 17 47 17 0 0 175 -57 390 -127z
m-825 101 c0 -5 3 -18 6 -29 5 -17 0 -22 -21 -26 -21 -5 -28 -1 -36 19 -5 14
-7 29 -3 34 6 11 54 12 54 2z m-114 -37 c8 -32 -2 -46 -32 -46 -20 0 -24 5
-24 29 0 27 8 34 42 40 4 0 10 -10 14 -23z m-118 -37 c-2 -18 -9 -24 -28 -24
-20 0 -26 6 -28 27 -3 21 1 27 20 30 30 5 40 -4 36 -33z m548 -229 c56 -197
70 -258 61 -266 -36 -35 -795 -180 -818 -157 -11 12 -70 526 -61 535 4 4 70
17 147 28 153 22 390 70 500 99 39 11 76 19 84 18 9 -1 38 -87 87 -257z m-671
214 c0 -24 -4 -29 -25 -29 -20 0 -26 6 -28 27 -2 19 2 28 15 31 30 8 38 2 38
-29z m-115 -13 c0 -23 -5 -30 -25 -33 -29 -6 -35 -2 -35 27 0 28 8 35 37 35
19 0 23 -5 23 -29z m-135 -17 c0 -24 -4 -29 -25 -29 -20 0 -26 6 -28 27 -2 19
2 28 15 31 30 8 38 2 38 -29z m-240 -20 c0 -24 -5 -30 -27 -32 -25 -3 -28 0
-28 27 0 20 6 31 18 34 29 8 37 2 37 -29z m125 6 c0 -27 -3 -30 -30 -30 -27 0
-30 3 -30 30 0 27 3 30 30 30 27 0 30 -3 30 -30z m-246 -2 c6 -27 -1 -35 -34
-40 -26 -3 -37 18 -26 48 9 23 53 17 60 -8z m-374 -18 c0 -27 -3 -30 -30 -30
-25 0 -30 4 -30 23 0 30 7 37 37 37 19 0 23 -5 23 -30z m128 -2 c3 -25 0 -28
-27 -28 -28 0 -31 3 -31 31 0 27 3 30 28 27 21 -2 28 -9 30 -30z m122 2 c0
-27 -3 -30 -30 -30 -27 0 -30 3 -30 30 0 27 3 30 30 30 27 0 30 -3 30 -30z
m477 -52 c11 -13 65 -529 57 -537 -11 -12 -355 -32 -579 -34 l-250 -2 0 270 0
270 215 8 c171 6 510 29 541 36 4 0 11 -5 16 -11z m1952 -68 c11 -6 9 -9 -8
-15 -22 -7 -51 8 -51 27 0 9 31 3 59 -12z m-111 -45 c10 -22 9 -26 -18 -40
-27 -14 -30 -14 -45 8 -15 21 -14 23 6 40 29 23 44 21 57 -8z m-128 -64 c14
-27 14 -27 -21 -41 -33 -14 -49 -4 -49 32 0 31 54 38 70 9z m-129 -62 c13 -24
5 -35 -33 -44 -24 -6 -28 -3 -34 20 -11 44 45 64 67 24z m-130 -57 c7 -18 3
-24 -20 -36 -21 -11 -31 -12 -40 -3 -18 18 -13 47 12 57 29 12 38 8 48 -18z
m-137 -38 c11 -30 6 -42 -23 -52 -27 -10 -30 -8 -39 18 -9 24 -7 29 11 38 31
15 44 14 51 -4z m-130 -56 c3 -13 2 -26 -2 -30 -12 -11 -62 -21 -62 -12 0 5
-3 19 -6 31 -4 15 -1 22 13 26 38 10 51 6 57 -15z m-145 -40 c10 -25 -9 -48
-40 -48 -30 0 -40 56 -11 63 34 9 43 7 51 -15z m-134 -39 c8 -24 0 -34 -32
-44 -19 -5 -25 -1 -33 21 -8 21 -8 29 2 36 24 15 56 9 63 -13z m-137 -40 c3
-22 -2 -28 -24 -33 -29 -8 -44 5 -44 36 0 19 16 28 45 25 14 -1 21 -11 23 -28z
m-133 -20 c8 -25 -1 -36 -34 -41 -19 -2 -26 3 -32 24 -7 29 0 36 38 37 14 1
24 -7 28 -20z m-137 -31 c3 -22 -2 -29 -22 -34 -32 -8 -46 1 -46 31 0 42 63
45 68 3z m-134 -15 c8 -29 -5 -43 -41 -43 -19 0 -23 6 -23 29 0 28 9 36 46 40
7 0 15 -11 18 -26z m-136 -25 c3 -22 -2 -29 -22 -34 -32 -8 -46 1 -46 31 0 44
63 47 68 3z m-143 -8 c9 -28 -2 -40 -36 -40 -26 0 -29 3 -29 30 0 27 3 30 29
30 21 0 32 -6 36 -20z m-135 -19 c0 -23 -5 -30 -27 -34 -35 -7 -43 -2 -43 27
0 30 7 36 42 36 24 0 28 -4 28 -29z m-136 3 c13 -34 7 -44 -29 -44 -32 0 -35
2 -35 30 0 26 3 30 29 30 17 0 31 -6 35 -16z m-269 -29 c0 -27 -3 -30 -30 -30
-24 0 -31 5 -33 24 -4 27 13 42 43 39 15 -2 20 -11 20 -33z m135 5 c0 -27 -3
-30 -29 -30 -21 0 -32 6 -36 20 -9 28 2 40 36 40 26 0 29 -3 29 -30z m-400
-10 c0 -27 -3 -30 -30 -30 -32 0 -47 18 -36 45 3 9 18 15 36 15 27 0 30 -3 30
-30z m130 0 c0 -27 -3 -30 -30 -30 -27 0 -30 3 -30 30 0 27 3 30 30 30 27 0
30 -3 30 -30z"/>
<path d="M2296 3896 c-56 -21 -87 -46 -109 -90 -114 -218 169 -407 331 -221
18 20 32 42 32 49 0 22 24 36 72 42 68 9 147 -17 202 -68 46 -43 46 -43 35
-82 -32 -113 73 -246 196 -246 102 0 205 100 205 200 0 69 -72 169 -137 191
-55 18 -135 7 -182 -25 l-40 -28 -46 40 c-61 53 -130 77 -221 75 -70 -1 -72 0
-77 25 -9 42 -61 107 -103 127 -51 24 -111 28 -158 11z m134 -61 c103 -53 102
-208 -2 -255 -56 -25 -84 -25 -132 3 -94 53 -101 169 -16 241 37 30 103 35
150 11z m688 -225 c34 -15 47 -29 64 -66 47 -108 -23 -210 -140 -201 -145 11
-182 198 -52 265 54 27 73 27 128 2z"/>
<path d="M2311 3754 c-55 -46 -37 -130 33 -154 105 -34 162 107 66 163 -39 23
-63 21 -99 -9z"/>
<path d="M2994 3544 c-59 -29 -70 -90 -25 -135 42 -42 99 -41 135 2 40 47 30
106 -23 134 -37 19 -48 19 -87 -1z"/>
<path d="M2517 3542 c-10 -11 -17 -35 -17 -60 l0 -41 35 15 c78 32 179 2 225
-69 l25 -39 23 27 c17 20 22 37 20 64 -3 33 -8 38 -66 67 -108 53 -215 69
-245 36z"/>
<path d="M2135 3505 c-40 -21 -55 -43 -55 -78 0 -43 62 -101 130 -121 66 -20
91 -20 135 -2 57 24 72 81 34 130 -53 67 -181 105 -244 71z"/>
<path d="M2863 3264 c-76 -38 -60 -124 33 -176 94 -52 199 -43 230 21 47 94
-151 210 -263 155z"/>
<path d="M1854 3246 c-40 -18 -71 -58 -85 -109 -15 -56 10 -120 60 -151 50
-32 67 -54 53 -68 -16 -16 -40 -3 -44 24 -2 19 -13 26 -61 38 -69 17 -77 11
-77 -61 0 -81 76 -142 176 -143 139 -1 206 157 111 261 l-20 23 48 -16 c46
-16 49 -16 61 1 41 56 20 137 -46 181 -49 33 -128 42 -176 20z m148 -42 c15
-8 34 -24 42 -36 16 -22 22 -79 10 -91 -11 -10 -62 14 -67 33 -7 26 -52 53
-77 45 -24 -8 -44 -50 -33 -70 5 -7 27 -28 51 -45 81 -58 90 -146 21 -204 -72
-61 -219 -2 -219 86 0 16 5 28 13 28 32 0 59 -15 68 -37 5 -13 21 -28 35 -33
65 -25 102 58 47 103 -75 62 -93 85 -93 120 0 98 105 150 202 101z m-56 -99
c10 -24 0 -34 -20 -20 -10 8 -15 18 -11 24 9 16 25 14 31 -4z"/>
<path d="M2067 2977 c-38 -118 -67 -223 -65 -233 2 -12 21 -24 58 -35 30 -9
60 -15 66 -12 6 2 20 35 33 73 l22 70 55 0 c31 0 64 5 75 11 16 8 9 -11 -30
-84 -28 -51 -51 -99 -51 -104 0 -12 81 -43 110 -43 9 0 26 18 39 40 34 61 43
60 39 -7 l-3 -58 50 -17 c41 -14 52 -14 60 -3 9 10 17 6 43 -21 43 -45 127
-70 180 -54 68 22 128 97 120 151 -3 26 -42 49 -86 52 -22 2 -30 -4 -41 -31
-9 -20 -21 -31 -30 -29 -22 4 -18 58 12 143 28 82 52 93 52 24 0 -41 3 -46 35
-62 50 -26 84 -23 98 6 32 71 22 154 -25 198 -61 56 -123 71 -188 44 -44 -19
-58 -42 -105 -177 -35 -100 -40 -108 -35 -64 22 231 26 286 23 296 -5 14 -87
41 -101 32 -5 -3 -21 -25 -36 -48 l-27 -43 -12 43 c-21 79 -109 141 -215 152
l-52 5 -68 -215z m206 148 c65 -29 97 -72 97 -131 0 -82 -86 -141 -167 -116
-21 6 -41 8 -44 4 -4 -4 -17 -39 -28 -79 l-21 -71 -32 8 c-50 15 -53 -7 34
261 l51 156 39 -9 c22 -5 54 -15 71 -23z m267 -116 c0 -34 -27 -304 -36 -362
-5 -32 -9 -38 -27 -35 -19 3 -22 10 -25 61 -3 51 -6 59 -28 67 -14 6 -27 10
-29 10 -2 0 -16 -20 -31 -45 -14 -25 -32 -45 -39 -45 -22 0 -45 11 -45 22 0
13 101 194 162 289 42 67 51 76 73 71 20 -3 25 -10 25 -33z m287 -59 c50 -30
66 -62 61 -120 -6 -61 -11 -66 -46 -54 -24 8 -27 15 -27 52 0 47 -13 62 -56
62 -34 0 -41 -10 -73 -102 -33 -98 -34 -152 -3 -172 30 -20 64 -10 82 24 11
22 19 26 40 23 48 -10 19 -89 -43 -119 -64 -30 -168 7 -187 67 -10 32 80 301
111 332 33 33 94 36 141 7z"/>
<path d="M2195 3058 c-21 -63 -26 -101 -14 -109 53 -33 129 -11 129 37 0 51
-101 114 -115 72z m63 -40 c21 -21 14 -48 -11 -48 -31 0 -35 5 -29 35 5 27 21
32 40 13z"/>
<path d="M2462 2928 c-6 -7 -22 -39 -36 -71 l-25 -58 32 -14 c17 -7 35 -11 39
-9 9 6 28 97 28 134 0 32 -19 40 -38 18z"/>
<path d="M2976 2902 c-25 -41 -148 -434 -138 -443 8 -8 255 -89 269 -89 6 0
20 22 31 49 24 59 23 60 -68 93 -65 23 -76 33 -62 55 6 9 17 10 39 4 41 -12
48 -5 67 57 l15 53 -34 15 c-32 13 -44 32 -29 46 3 3 33 -3 67 -13 95 -29 101
-27 120 32 10 28 17 55 17 60 0 9 -195 73 -254 85 -19 3 -36 2 -40 -4z m150
-64 c95 -29 104 -33 98 -52 -11 -38 -21 -40 -96 -18 -40 12 -76 22 -80 22 -9
0 -39 -91 -33 -100 3 -5 19 -11 35 -15 30 -7 37 -24 24 -58 -4 -12 -12 -13
-41 -5 -19 5 -39 6 -43 1 -9 -10 -30 -72 -30 -89 0 -7 36 -24 80 -39 76 -25
79 -28 69 -48 -7 -12 -13 -24 -15 -26 -1 -1 -52 13 -113 34 l-109 36 13 42 c8
23 35 107 61 187 25 80 48 148 51 153 7 11 18 9 129 -25z"/>
<path d="M1358 2598 c-38 -112 -68 -214 -68 -226 0 -24 27 -39 85 -49 30 -5
31 -4 54 72 15 50 26 73 31 65 4 -7 15 -10 24 -7 9 4 16 5 16 4 0 -1 -9 -34
-20 -72 -11 -38 -20 -75 -20 -82 0 -15 99 -48 110 -37 16 18 152 446 144 454
-13 11 -74 30 -98 30 -11 0 -30 -12 -43 -27 l-22 -28 -1 37 c0 43 -16 55 -82
64 l-43 6 -67 -204z m143 152 c15 -8 19 -22 19 -60 0 -63 21 -67 65 -14 28 33
34 36 64 29 18 -4 31 -12 28 -18 -2 -7 -32 -96 -66 -199 -35 -104 -68 -188
-74 -188 -7 0 -18 4 -26 9 -12 8 -9 27 17 118 18 59 32 114 32 121 0 21 -27
13 -48 -13 -26 -33 -32 -32 -32 10 0 24 -5 35 -14 35 -10 0 -27 -36 -50 -107
-34 -107 -47 -125 -80 -106 -11 7 -4 39 43 183 31 96 60 183 64 193 7 19 29
22 58 7z"/>
<path d="M1676 2482 c-42 -125 -76 -230 -76 -234 0 -11 134 -48 142 -40 4 4
14 25 21 47 l14 39 6 -41 c5 -32 16 -50 48 -77 76 -65 172 -65 236 -1 l33 33
0 -36 c0 -49 31 -97 77 -120 85 -43 145 -37 201 21 57 60 66 118 28 189 l-24
46 33 -11 c46 -14 62 -5 75 43 10 36 8 47 -10 85 -17 34 -33 49 -73 69 -77 39
-143 32 -198 -20 l-26 -25 -1 31 c-2 80 -91 146 -183 138 -155 -15 -203 -200
-73 -282 28 -18 44 -35 44 -48 0 -27 -34 -20 -38 8 -4 26 -80 59 -118 51 -13
-2 -24 -3 -24 -1 0 1 23 68 51 148 28 80 49 153 47 162 -3 16 -87 54 -120 54
-13 0 -34 -52 -92 -228z m143 177 c18 -6 31 -17 29 -25 -2 -7 -30 -97 -63
-199 l-60 -186 -40 6 c-21 3 -40 7 -42 9 -5 4 132 406 138 406 3 0 20 -5 38
-11z m299 -123 c32 -35 40 -68 23 -95 -14 -21 -64 0 -71 30 -3 13 -18 30 -33
37 -24 12 -32 11 -53 -3 -38 -25 -29 -63 24 -98 55 -37 76 -77 69 -135 -10
-90 -92 -133 -180 -94 -59 26 -99 88 -78 121 12 19 68 5 74 -19 2 -10 17 -26
31 -35 33 -22 72 -8 82 29 8 33 -8 60 -58 93 -57 38 -74 74 -59 124 30 99 156
123 229 45z m-82 -67 c3 -6 1 -16 -4 -21 -13 -13 -45 8 -36 23 7 12 31 11 40
-2z m354 -4 c59 -31 95 -116 54 -132 -24 -9 -64 14 -64 36 0 40 -81 57 -100
22 -18 -35 -11 -50 38 -86 55 -39 72 -69 72 -127 0 -34 -6 -47 -39 -79 -31
-31 -46 -39 -76 -39 -72 0 -145 62 -145 124 0 40 35 33 77 -14 39 -43 66 -50
95 -23 28 25 22 62 -13 92 -83 70 -89 78 -89 121 0 52 13 76 53 100 38 24 97
26 137 5z m-230 -102 c0 -45 28 -92 74 -125 27 -18 46 -40 46 -51 0 -27 -34
-18 -38 10 -3 18 -15 26 -54 38 -29 8 -57 15 -63 15 -6 0 -10 13 -7 33 2 20
-5 49 -20 78 l-23 45 42 -10 c36 -8 43 -13 43 -33z m180 7 c11 -7 12 -12 3
-21 -13 -13 -33 -4 -33 17 0 16 9 18 30 4z"/>
<path d="M2544 2449 c-15 -24 -153 -453 -148 -460 6 -10 100 -39 125 -39 11 0
23 15 32 43 15 41 15 41 16 11 1 -41 38 -95 81 -117 70 -36 167 -6 211 67 24
39 24 33 -1 -39 -11 -32 -20 -62 -20 -66 0 -10 97 -42 112 -37 6 2 22 33 34
69 21 60 22 62 23 28 1 -20 4 -57 7 -82 6 -43 9 -47 49 -60 26 -9 48 -11 58
-6 9 5 44 98 86 227 39 120 71 221 71 224 0 10 -99 40 -113 35 -7 -3 -19 -23
-27 -46 -16 -50 -30 -53 -30 -7 0 56 -15 83 -54 96 -55 18 -67 11 -91 -54
l-22 -58 0 45 c-1 56 -13 78 -59 114 -29 21 -50 28 -100 31 -63 4 -65 4 -99
-32 l-34 -36 16 45 c8 25 13 51 10 59 -7 18 -125 58 -133 45z m71 -51 c14 -6
25 -14 25 -17 0 -4 -29 -92 -64 -196 -63 -189 -63 -190 -91 -188 -16 1 -34 4
-41 7 -16 6 115 406 133 406 7 0 24 -5 38 -12z m220 -77 c49 -22 64 -40 72
-83 11 -71 -56 -259 -109 -303 -57 -48 -156 -25 -184 41 -13 31 -13 42 2 102
20 80 59 188 80 220 28 43 77 52 139 23z m221 -69 c6 -4 17 -52 25 -107 18
-126 32 -130 71 -20 16 44 30 81 32 82 8 8 46 -12 46 -25 0 -9 -28 -101 -62
-204 -57 -171 -64 -187 -83 -182 -33 10 -35 15 -41 126 -10 164 -25 169 -74
23 -23 -70 -36 -95 -48 -95 -41 1 -42 13 -7 125 84 268 102 304 141 277z"/>
<path d="M2732 2247 c-57 -61 -92 -218 -57 -257 28 -31 78 -26 109 10 28 34
66 145 66 194 0 71 -71 103 -118 53z m76 -58 c3 -49 -28 -147 -55 -175 -18
-18 -42 -15 -56 7 -15 24 17 144 49 186 36 47 58 41 62 -18z"/>
<path d="M756 2318 c-8 -18 -30 -83 -49 -145 -48 -155 -50 -154 119 -119 150
31 174 40 174 62 0 25 -188 234 -211 234 -13 0 -25 -11 -33 -32z"/>
<path d="M1062 2084 c2 -12 71 -39 246 -97 l242 -80 0 -29 c0 -21 11 -41 34
-64 46 -46 100 -47 149 -5 l33 30 590 -193 c870 -286 1125 -368 1131 -362 19
19 -24 41 -189 94 -101 32 -457 149 -793 259 -335 111 -638 209 -672 218 -61
17 -63 19 -63 50 0 67 -77 118 -142 96 -18 -6 -42 -20 -54 -32 l-21 -20 -235
76 c-129 41 -241 75 -247 75 -7 0 -11 -7 -9 -16z m649 -133 c16 -13 23 -29 23
-54 0 -49 -27 -77 -74 -77 -103 0 -97 146 6 149 12 1 32 -7 45 -18z"/>
<path d="M4250 4544 c0 -75 0 -76 -46 -132 -45 -55 -45 -56 -23 -64 12 -5 25
-7 29 -6 13 6 200 209 200 217 0 5 -11 11 -25 14 -21 3 -31 -3 -53 -31 l-27
-36 -5 49 c-4 38 -10 50 -27 56 -23 8 -23 7 -23 -67z"/>
<path d="M4521 4488 c-7 -18 -4 -27 11 -39 20 -16 20 -17 -21 -110 -39 -87
-41 -94 -25 -106 10 -7 23 -13 29 -13 6 0 31 43 54 95 40 88 45 94 64 83 16
-8 23 -7 34 8 23 31 15 42 -51 73 -76 37 -84 38 -95 9z"/>
<path d="M4683 4388 c-33 -36 -93 -152 -93 -180 0 -30 26 -55 71 -68 45 -13
69 4 118 88 51 85 53 120 10 156 -38 32 -79 33 -106 4z m76 -52 c10 -11 6 -27
-18 -74 -34 -68 -43 -76 -70 -67 -29 9 -31 27 -10 76 34 75 70 99 98 65z"/>
<path d="M3576 4284 c-3 -9 -6 -72 -6 -140 0 -112 2 -124 18 -124 11 0 23 13
31 33 13 33 15 32 25 -15 9 -40 33 -35 45 10 40 148 53 225 40 233 -34 21 -41
11 -54 -83 -7 -49 -24 -66 -26 -25 -1 20 -2 19 -15 -8 -13 -28 -14 -24 -8 53
l6 82 -25 0 c-14 0 -28 -7 -31 -16z"/>
<path d="M3781 4232 c-39 -77 -92 -213 -86 -222 3 -6 17 -10 29 -10 17 0 27 9
36 30 16 38 33 34 40 -10 3 -22 12 -35 28 -41 12 -5 22 -5 23 -1 0 4 0 68 -1
142 -1 134 -5 149 -37 150 -7 0 -21 -17 -32 -38z m29 -92 c0 -30 -4 -40 -16
-40 -11 0 -14 5 -10 16 3 9 9 27 12 40 9 35 14 29 14 -16z"/>
<path d="M3896 4224 c-4 -16 -4 -30 1 -31 37 -14 38 -19 13 -122 -13 -56 -22
-102 -19 -104 2 -3 16 -7 31 -11 26 -6 26 -5 50 97 23 96 25 102 48 99 25 -3
40 12 40 40 0 12 -15 22 -52 32 -107 30 -105 30 -112 0z"/>
<path d="M4102 4173 c-30 -26 -83 -200 -70 -229 32 -69 175 -48 166 25 -4 34
-33 39 -57 10 -39 -48 -54 10 -24 94 14 38 21 47 38 45 15 -2 20 -10 18 -31
-1 -21 4 -31 23 -39 31 -14 44 0 44 50 0 70 -88 117 -138 75z"/>
<path d="M4290 4102 c-6 -15 -25 -61 -40 -102 -16 -41 -33 -87 -38 -101 -9
-23 -8 -28 14 -38 24 -10 26 -9 46 36 26 60 22 57 47 44 l21 -11 -20 -50 -20
-51 26 -10 c15 -5 28 -8 30 -7 1 2 23 59 48 128 42 114 44 126 29 138 -26 19
-31 15 -53 -37 -17 -39 -25 -48 -41 -44 -23 6 -24 18 -4 72 13 38 13 42 -3 48
-9 3 -20 7 -23 9 -3 2 -12 -9 -19 -24z"/>
<path d="M4452 3965 c-46 -94 -50 -110 -25 -119 22 -9 24 -6 71 96 38 83 40
89 22 98 -10 5 -20 10 -22 10 -2 0 -23 -38 -46 -85z"/>
<path d="M4392 3828 c-17 -17 -15 -35 4 -42 22 -8 22 -8 34 14 8 15 6 21 -8
29 -13 7 -22 7 -30 -1z"/>
</g>
</svg>
