<?xml version="1.0" standalone="no"?>
<!DOCTYPE svg PUBLIC "-//W3C//DTD SVG 20010904//EN"
 "http://www.w3.org/TR/2001/REC-SVG-20010904/DTD/svg10.dtd">
<svg version="1.0" xmlns="http://www.w3.org/2000/svg"
 width="512.000000pt" height="512.000000pt" viewBox="0 0 512.000000 512.000000"
 preserveAspectRatio="xMidYMid meet">

<g transform="translate(0.000000,512.000000) scale(0.100000,-0.100000)"
fill="#000000" stroke="none">
<path d="M2898 5108 c-34 -9 -39 -15 -53 -61 -8 -28 -15 -54 -15 -59 0 -13 68
-9 73 5 2 6 10 -15 16 -48 37 -176 34 -170 66 -168 15 1 32 6 36 10 5 5 -7 78
-26 163 -19 85 -35 158 -35 163 0 9 -14 8 -62 -5z"/>
<path d="M2464 4976 c-57 -25 -78 -79 -54 -140 9 -25 11 -26 42 -13 27 11 32
18 30 39 -4 33 22 56 43 38 23 -19 18 -39 -25 -101 -42 -60 -46 -82 -26 -139
15 -41 16 -41 127 2 71 27 79 32 73 52 -11 38 -21 40 -79 18 l-55 -21 0 23 c0
13 9 31 20 41 12 10 30 34 42 53 18 30 19 38 9 74 -24 79 -76 105 -147 74z"/>
<path d="M3248 4883 c-19 -5 -23 -29 -10 -50 4 -7 17 -10 30 -6 16 4 22 13 22
34 0 29 -6 32 -42 22z"/>
<path d="M3146 4862 c-12 -19 7 -52 30 -52 28 0 35 10 27 38 -5 22 -46 32 -57
14z"/>
<path d="M3073 4853 c-7 -2 -13 -18 -13 -34 0 -27 2 -29 28 -23 35 9 35 9 28
39 -6 24 -17 29 -43 18z"/>
<path d="M2072 4799 c-52 -11 -92 -55 -92 -100 0 -21 5 -41 10 -44 18 -11 50
6 65 36 17 32 52 39 62 13 4 -11 -3 -23 -20 -36 -26 -19 -26 -20 -11 -50 12
-22 19 -27 27 -19 16 16 42 14 57 -4 19 -23 -6 -48 -40 -40 -18 4 -34 0 -50
-13 l-23 -18 30 -34 c30 -34 31 -34 73 -21 50 15 100 60 100 90 0 25 -92 212
-112 227 -22 18 -41 21 -76 13z"/>
<path d="M2713 4760 c-16 -6 -20 -14 -16 -30 3 -12 12 -24 19 -27 8 -3 14 -14
14 -25 0 -13 6 -18 18 -16 18 4 18 8 7 71 -6 39 -8 41 -42 27z"/>
<path d="M3416 4651 c-3 -5 1 -60 9 -122 8 -62 15 -116 15 -121 0 -10 31 -10
48 1 11 6 11 25 2 97 -19 156 -18 154 -45 154 -13 0 -26 -4 -29 -9z"/>
<path d="M3317 4643 c-14 -4 -17 -11 -13 -31 24 -120 21 -124 -34 -43 -28 40
-41 51 -62 51 -15 0 -29 -4 -32 -8 -4 -7 38 -276 50 -314 6 -22 52 -24 60 -4
3 8 0 42 -6 76 -6 34 -9 64 -7 66 2 2 24 -26 48 -64 38 -56 49 -66 70 -64 13
2 26 6 28 8 3 2 -8 78 -24 169 -30 173 -28 171 -78 158z"/>
<path d="M2301 4601 c-12 -8 -13 -14 -3 -36 7 -14 16 -24 21 -21 5 4 13 -5 18
-19 6 -17 12 -22 22 -16 12 7 12 15 0 52 -14 44 -32 57 -58 40z"/>
<path d="M2983 4561 c-18 -12 -34 -31 -37 -48 -7 -28 33 -204 55 -245 37 -68
179 -21 179 59 0 44 -29 170 -46 205 -26 51 -93 64 -151 29z m95 -63 c6 -6 19
-44 28 -84 14 -60 15 -76 4 -88 -21 -26 -58 -20 -73 12 -27 52 -38 119 -25
146 12 28 45 35 66 14z"/>
<path d="M2832 4527 c-39 -12 -40 -6 23 -198 24 -73 49 -134 54 -133 6 1 19 2
29 3 42 4 41 13 -8 176 -26 88 -52 160 -57 161 -4 1 -23 -3 -41 -9z"/>
<path d="M2665 4469 c-49 -17 -92 -33 -93 -34 -2 -2 1 -20 8 -40 10 -30 15
-35 33 -29 12 3 26 7 30 8 5 0 29 -51 54 -114 24 -63 46 -116 48 -118 7 -7 57
12 62 24 2 7 -15 63 -38 125 -27 69 -39 114 -33 116 6 2 20 10 30 17 17 13 17
17 4 45 l-15 31 -90 -31z"/>
<path d="M2383 4361 c-52 -32 -52 -64 3 -186 53 -119 81 -149 128 -139 79 16
123 88 96 154 -14 33 -18 35 -54 19 -21 -10 -24 -16 -19 -45 7 -41 -17 -56
-47 -29 -22 20 -73 142 -65 156 11 16 44 10 57 -11 15 -23 37 -26 63 -6 17 12
17 17 5 45 -24 59 -105 79 -167 42z"/>
<path d="M3450 4350 c0 -27 3 -30 30 -30 27 0 30 3 30 30 0 27 -3 30 -30 30
-27 0 -30 -3 -30 -30z"/>
<path d="M2208 4265 l-27 -15 25 -92 c31 -119 64 -220 75 -232 5 -5 19 -2 34
8 27 18 28 30 9 80 -11 29 25 31 55 2 31 -30 40 -31 65 -13 17 13 12 22 -75
122 -52 59 -103 118 -114 131 -19 21 -22 22 -47 9z m112 -166 c0 -4 -7 -10
-15 -13 -16 -6 -24 8 -39 64 -7 23 -4 22 23 -10 17 -19 31 -38 31 -41z"/>
<path d="M2990 3964 c-404 -140 -745 -257 -758 -260 -17 -5 -21 -3 -16 9 8 22
-12 55 -46 72 -55 29 -831 173 -1022 191 -91 8 -192 -8 -263 -42 -72 -33 -133
-97 -233 -243 -60 -86 -131 -171 -225 -267 -167 -172 -182 -200 -182 -329 0
-82 3 -97 33 -157 58 -118 160 -187 288 -196 143 -9 318 52 466 163 40 30 76
55 79 55 8 0 19 -37 19 -64 0 -11 -7 -28 -16 -38 -16 -16 -16 -28 -1 -159 9
-77 21 -147 28 -155 6 -8 22 -14 35 -14 13 0 24 -1 24 -2 1 -2 40 -360 88
-796 l88 -793 -23 6 c-114 28 -277 47 -373 42 -292 -14 -465 -157 -463 -382 1
-91 30 -169 90 -235 57 -63 91 -81 234 -121 151 -41 186 -56 374 -150 235
-118 325 -126 491 -45 95 47 433 304 736 558 130 109 158 140 158 174 0 14 6
24 15 24 29 0 1467 160 1490 166 14 3 38 22 55 40 25 29 30 43 30 87 -1 29
-42 429 -93 890 -93 838 -93 839 -72 847 43 17 45 27 29 176 -12 100 -21 144
-32 156 -16 16 -86 9 -1181 -111 l-1165 -128 -112 61 c-62 33 -110 64 -106 68
4 4 545 192 1202 419 657 226 1201 416 1208 421 6 6 12 19 12 29 0 23 -79 259
-93 277 -5 6 -21 12 -36 11 -14 0 -357 -115 -761 -255z m788 164 c44 -119 64
-190 56 -198 -14 -12 -145 -53 -151 -46 -11 11 16 279 29 288 30 19 47 7 66
-44z m-319 -100 c-1 -75 -15 -227 -21 -234 -10 -10 -291 -105 -296 -100 -6 7
17 278 24 285 7 7 265 98 282 100 8 1 12 -15 11 -51z m-2049 -134 c419 -69
720 -130 748 -150 23 -18 7 -43 -44 -69 -34 -17 -59 -20 -189 -20 -82 0 -215
7 -295 14 -128 12 -157 12 -251 -2 -232 -35 -371 -137 -281 -207 24 -20 36
-22 117 -18 81 4 103 10 220 57 168 69 265 102 265 91 0 -5 -5 -21 -10 -36
-20 -53 23 -124 83 -140 34 -8 26 -15 -50 -44 -47 -18 -55 -18 -87 -5 -46 19
-158 19 -227 -1 -30 -8 -142 -57 -249 -109 -233 -113 -324 -140 -445 -132 -88
6 -151 28 -204 73 -41 34 -91 110 -91 137 0 11 39 61 87 111 49 50 126 148
173 216 100 146 149 199 220 235 103 52 192 52 510 -1z m1513 -41 c-14 -180
-21 -244 -24 -247 -2 -1 -71 -26 -153 -55 l-149 -51 7 75 c3 41 9 108 12 148
l6 72 147 52 c80 28 149 52 152 52 3 1 4 -20 2 -46z m-537 -170 c-3 -16 -8
-79 -12 -140 -4 -64 -11 -116 -18 -121 -18 -14 -286 -105 -292 -100 -4 5 15
279 20 285 5 5 282 102 294 102 10 1 12 -7 8 -26z m-876 -109 c-205 -85 -245
-96 -322 -92 -37 2 -70 7 -75 11 -25 25 75 87 189 117 54 14 108 19 208 19
l135 1 -135 -56z m322 -266 c-2 -35 -7 -66 -11 -70 -9 -10 -294 -108 -299
-103 -2 2 0 32 5 66 l8 63 138 47 c76 25 141 49 144 53 15 15 19 2 15 -56z
m2168 -165 c0 -5 7 -64 14 -133 8 -69 13 -126 12 -127 -3 -3 -169 -23 -172
-20 -7 7 81 264 94 275 17 13 52 16 52 5z m-2717 -93 c-10 -9 -105 -41 -110
-37 -2 2 23 24 54 49 58 46 58 46 61 21 2 -14 0 -29 -5 -33z m2401 38 c-4 -13
-22 -72 -41 -133 -18 -60 -37 -113 -41 -116 -9 -9 -302 -42 -309 -35 -4 4 72
264 80 272 5 5 223 31 275 33 41 1 43 0 36 -21z m-564 -45 c0 -10 -78 -264
-82 -269 -6 -5 -308 -37 -313 -33 -5 6 73 261 83 271 7 7 216 34 280 37 17 0
32 -2 32 -6z m-574 -95 c-7 -24 -26 -83 -41 -133 -15 -49 -31 -94 -35 -99 -9
-9 -209 -35 -276 -36 l-41 0 42 138 43 137 138 16 c204 24 185 27 170 -23z
m-556 -24 c0 -10 -82 -268 -86 -273 -6 -7 -308 -40 -313 -35 -5 4 68 246 80
266 7 10 56 18 307 47 6 0 12 -2 12 -5z m-570 -71 c0 -4 -19 -66 -41 -139
l-42 -132 -80 -7 c-55 -5 -82 -4 -86 4 -10 16 -33 242 -26 250 14 14 275 37
275 24z m1615 -288 c17 -16 25 -35 25 -60 0 -101 -151 -119 -176 -21 -7 27 17
80 43 95 33 19 82 13 108 -14z m-690 -87 c35 -41 33 -80 -6 -112 -85 -72 -197
30 -129 117 35 44 96 42 135 -5z m456 -29 c17 -17 20 -30 17 -63 -7 -56 -31
-91 -87 -124 -62 -36 -148 -38 -204 -3 -40 24 -77 84 -77 124 0 54 83 85 238
86 81 1 95 -2 113 -20z m1072 -324 c4 -8 2 -17 -4 -21 -6 -3 -315 -40 -686
-80 -657 -73 -720 -77 -687 -44 6 6 1233 151 1355 159 9 1 19 -6 22 -14z m33
-286 c3 -6 2 -15 -2 -19 -5 -5 -313 -42 -684 -83 -658 -73 -724 -77 -692 -45
6 6 230 34 498 64 269 29 561 62 649 73 195 23 222 24 231 10z m41 -455 c2 -6
-2 -14 -10 -17 -7 -3 -170 -22 -363 -42 -192 -21 -353 -41 -357 -45 -5 -4 -2
-65 7 -136 14 -127 10 -162 -16 -136 -6 6 -18 69 -25 139 -8 70 -15 128 -16
130 -4 4 -799 -86 -804 -91 -3 -3 0 -64 7 -136 7 -71 10 -133 7 -136 -3 -4
-12 -4 -20 -1 -10 3 -17 44 -27 136 -12 123 -14 131 -34 131 -11 0 -175 -16
-364 -37 -269 -29 -345 -34 -355 -24 -9 9 -9 13 0 19 7 5 313 41 680 81 368
41 877 97 1133 126 469 54 550 59 557 39z m-1902 -520 c-37 -55 -32 -107 17
-160 l19 -22 -63 -11 c-35 -6 -117 -15 -183 -21 -193 -17 -293 -51 -345 -117
-27 -34 -23 -60 13 -87 42 -31 174 -27 281 9 102 34 239 104 332 171 171 122
297 183 382 184 113 0 84 -35 -253 -306 -290 -233 -485 -378 -557 -413 -35
-17 -91 -36 -124 -43 -93 -17 -157 1 -347 97 -90 45 -210 96 -267 115 -58 18
-111 41 -118 49 -19 22 -10 114 18 179 28 65 112 145 186 178 97 43 169 54
404 64 303 13 371 30 460 115 48 46 62 52 127 54 l42 1 -24 -36z m-40 -260
c-136 -86 -279 -134 -396 -134 -62 0 -81 3 -85 15 -8 21 12 43 65 70 57 28
122 41 281 56 69 6 127 13 129 15 2 2 14 4 25 4 16 -1 12 -6 -19 -26z"/>
</g>
</svg>
