<?xml version="1.0" standalone="no"?>
<!DOCTYPE svg PUBLIC "-//W3C//DTD SVG 20010904//EN"
 "http://www.w3.org/TR/2001/REC-SVG-20010904/DTD/svg10.dtd">
<svg version="1.0" xmlns="http://www.w3.org/2000/svg"
 width="512.000000pt" height="512.000000pt" viewBox="0 0 512.000000 512.000000"
 preserveAspectRatio="xMidYMid meet">

<g transform="translate(0.000000,512.000000) scale(0.100000,-0.100000)"
fill="#000000" stroke="none">
<path d="M1376 5098 c-23 -20 -42 -83 -146 -483 -66 -253 -123 -467 -125 -476
-4 -13 -38 -18 -188 -28 -100 -7 -212 -16 -248 -21 -86 -10 -141 -45 -171
-110 l-23 -48 -75 -7 c-41 -4 -89 -13 -107 -20 -38 -16 -63 -60 -63 -111 0
-45 50 -99 101 -109 l35 -6 173 -1162 c95 -639 177 -1179 182 -1200 6 -21 20
-44 34 -53 18 -11 25 -28 30 -67 10 -76 14 -86 43 -101 24 -12 96 -9 570 28
633 50 589 38 584 152 -2 58 1 68 20 84 l23 18 0 1219 0 1218 22 3 c35 5 83
67 83 108 0 92 -56 128 -183 119 l-82 -7 -22 40 c-17 30 -37 48 -78 67 l-55
27 -202 -16 c-111 -8 -203 -14 -205 -12 -2 2 34 149 81 327 154 586 146 555
135 589 -20 57 -98 78 -143 38z m108 -50 c7 -19 -17 -125 -105 -464 l-115
-439 -57 -9 c-32 -4 -60 -6 -62 -4 -3 3 27 126 65 274 39 148 91 346 115 441
25 94 49 183 55 197 19 50 86 53 104 4z m439 -1358 c55 -107 57 -112 57 -187
l-1 -78 -20 40 c-12 22 -54 101 -95 177 -41 75 -74 138 -74 141 0 7 27 14 55
16 16 1 32 -22 78 -109z m-106 -230 c148 -287 162 -320 163 -367 l0 -53 -48 0
-47 0 -80 148 c-43 81 -130 244 -192 362 l-112 215 32 6 c18 4 52 6 77 5 l44
-1 163 -315z m-290 -60 c102 -195 187 -360 190 -367 4 -9 -7 -13 -38 -13 l-44
0 -187 359 c-104 197 -188 361 -188 364 0 6 46 15 68 13 7 -1 97 -161 199
-356z m-215 -25 c103 -197 188 -363 188 -367 0 -4 -24 -8 -52 -8 -29 0 -62 -3
-73 -6 -18 -4 -43 39 -210 357 -105 200 -191 366 -193 370 -4 9 55 17 112 15
l39 -1 189 -360z m-312 -21 c105 -201 190 -367 188 -369 -2 -2 -20 -5 -42 -6
l-38 -4 -189 360 c-104 198 -189 363 -189 367 0 4 15 9 33 11 17 2 35 5 39 5
3 1 92 -163 198 -364z m-217 -22 c104 -199 188 -364 186 -366 -2 -2 -36 -6
-75 -9 l-71 -6 -189 362 c-104 198 -190 364 -192 368 -3 8 69 17 122 15 28 -1
37 -16 219 -364z m-223 -190 c56 -107 100 -195 98 -196 -2 -2 -20 -6 -40 -9
l-37 -6 -46 85 c-40 74 -49 101 -66 202 -21 131 -20 127 -15 121 2 -2 50 -91
106 -197z m1428 -549 l-3 -418 -155 -12 c-85 -7 -386 -30 -669 -52 -283 -23
-516 -39 -519 -37 -8 9 -124 808 -117 814 3 3 331 32 728 63 397 31 725 57
730 58 4 0 6 -187 5 -416z m-13 -493 c11 -22 15 -63 15 -172 l0 -143 -86 164
c-66 127 -83 166 -72 172 7 5 39 9 70 9 54 0 59 -2 73 -30z m-300 -40 c325
-620 340 -656 296 -680 -17 -9 -31 12 -144 228 -69 130 -155 292 -191 359 -36
67 -66 127 -66 133 0 7 16 10 41 8 36 -3 42 -7 64 -48z m-54 -333 c103 -199
186 -363 185 -363 0 -1 -33 -4 -72 -8 l-70 -6 -23 48 c-12 26 -49 94 -81 152
-91 165 -269 506 -272 521 -2 11 14 15 67 19 39 3 72 4 75 2 3 -2 89 -166 191
-365z m-409 168 c151 -287 285 -555 278 -555 -4 0 -21 -3 -38 -6 -29 -6 -31
-4 -79 87 -27 52 -113 214 -191 361 -78 147 -142 272 -142 278 0 7 16 10 41 8
l41 -3 90 -170z m-257 57 c28 -53 112 -217 187 -363 l137 -267 -71 -6 c-38 -4
-71 -6 -72 -4 -5 6 -109 202 -247 463 -95 179 -134 262 -126 267 7 4 41 8 77
8 l65 0 50 -98z m-76 -479 c80 -159 85 -172 66 -177 -45 -12 -54 -6 -95 72
-142 263 -147 273 -160 367 -6 50 -14 101 -17 115 -5 29 79 -127 206 -377z"/>
<path d="M1620 2715 c0 -38 -36 -85 -65 -85 -23 0 -55 37 -62 71 -6 33 -20 46
-34 32 -14 -14 7 -73 38 -105 54 -56 129 -26 153 61 12 44 7 61 -16 61 -9 0
-14 -11 -14 -35z"/>
<path d="M1055 2686 c-3 -14 -7 -37 -10 -51 -6 -30 -39 -49 -71 -41 -23 6 -41
35 -58 89 -7 23 -26 12 -26 -15 0 -38 31 -86 65 -103 30 -14 38 -14 68 -2 38
16 70 72 65 114 -4 35 -26 41 -33 9z"/>
<path d="M1380 2579 c0 -54 -51 -109 -100 -109 -41 0 -85 43 -100 99 -6 25
-16 41 -23 38 -20 -6 -19 -34 2 -81 24 -56 70 -86 130 -86 35 0 49 6 76 33 50
50 73 147 35 147 -17 0 -20 -7 -20 -41z"/>
<path d="M1544 2556 c-37 -16 -64 -51 -64 -83 0 -13 13 -37 29 -55 28 -32 32
-33 105 -33 69 0 77 2 105 29 52 50 38 107 -36 145 -29 15 -101 13 -139 -3z"/>
<path d="M904 2506 c-38 -17 -74 -61 -74 -91 0 -59 82 -104 159 -86 79 18 122
67 107 126 -14 55 -118 83 -192 51z"/>
<path d="M3089 4769 c-41 -15 -50 -46 -39 -141 6 -46 10 -88 10 -95 0 -34 74
-56 125 -37 23 9 48 62 41 90 -10 37 -52 33 -59 -6 -7 -33 -31 -40 -46 -12 -5
9 -10 44 -12 77 -3 50 -1 60 13 63 11 2 22 -6 30 -23 9 -20 18 -25 37 -23 37
4 39 39 4 76 -32 34 -66 44 -104 31z"/>
<path d="M3256 4771 c-4 -6 -4 -69 0 -141 l7 -131 26 3 c24 3 26 7 29 56 3 43
6 52 21 52 23 0 31 -19 31 -72 0 -35 2 -39 23 -36 19 3 22 10 25 58 2 30 1 92
-3 138 -6 78 -8 82 -31 82 -22 0 -24 -4 -24 -55 0 -52 -1 -55 -24 -55 -23 0
-25 4 -28 53 -3 45 -6 52 -25 55 -11 2 -24 -1 -27 -7z"/>
<path d="M3474 4745 c-24 -37 -32 -202 -11 -230 20 -26 98 -28 122 -4 22 21
34 80 35 157 0 79 -19 102 -85 102 -37 0 -47 -4 -61 -25z m84 -37 c15 -15 16
-112 2 -139 -15 -27 -48 -24 -61 5 -14 30 -3 110 17 131 19 18 26 19 42 3z"/>
<path d="M3675 4727 c-18 -28 -40 -177 -31 -212 4 -17 17 -28 44 -35 80 -24
117 20 128 154 6 66 5 75 -15 95 -31 31 -105 30 -126 -2z m89 -49 c14 -23 -5
-128 -25 -141 -9 -6 -24 -7 -34 -3 -26 9 -18 132 10 152 22 16 34 14 49 -8z"/>
<path d="M3903 4710 c-30 -12 -55 -63 -47 -96 4 -14 23 -36 45 -50 41 -26 50
-50 22 -61 -11 -4 -22 1 -31 15 -8 13 -25 22 -39 22 -38 0 -28 -48 16 -77 44
-30 76 -29 106 2 43 42 31 111 -25 140 -31 16 -39 38 -18 51 6 4 19 -2 28 -13
23 -29 58 -39 66 -19 12 32 -6 67 -41 82 -39 16 -51 16 -82 4z"/>
<path d="M4052 4563 c-18 -65 -32 -123 -32 -130 0 -12 80 -40 130 -45 19 -2
26 2 28 19 3 17 -4 24 -35 33 -48 16 -56 23 -49 48 5 14 13 18 30 15 18 -4 25
1 29 18 7 27 1 39 -19 39 -10 0 -14 8 -12 23 2 18 8 21 33 18 71 -10 80 -7 80
19 0 22 -7 27 -60 42 -94 26 -87 31 -123 -99z"/>
<path d="M4413 4548 c-12 -13 -49 -63 -82 -113 l-61 -89 27 -14 c25 -14 28
-13 46 12 28 38 47 34 44 -10 -1 -25 3 -40 15 -47 9 -6 19 -9 22 -6 3 2 16 65
30 139 18 100 21 137 13 142 -20 13 -32 9 -54 -14z m2 -107 c-4 -17 -10 -31
-14 -31 -18 0 -19 15 -4 41 21 35 27 31 18 -10z"/>
<path d="M3277 4333 c-4 -3 -7 -66 -7 -140 l0 -133 25 0 c24 0 25 2 25 73 1
68 2 70 15 47 l15 -25 6 23 c12 44 24 21 24 -48 0 -68 1 -70 25 -70 l25 0 0
140 0 140 -26 0 c-19 0 -28 -7 -37 -30 -6 -16 -14 -30 -17 -30 -3 0 -11 14
-17 30 -11 28 -39 40 -56 23z"/>
<path d="M3500 4312 c-25 -20 -39 -79 -40 -169 0 -53 3 -64 22 -77 29 -20 92
-20 112 -1 29 29 49 168 32 221 -13 42 -87 57 -126 26z m78 -113 c2 -51 -1
-71 -13 -83 -19 -18 -24 -19 -45 -6 -11 7 -15 26 -13 70 2 67 15 93 47 88 19
-3 21 -11 24 -69z"/>
<path d="M3671 4198 c1 -140 7 -162 41 -166 20 -2 28 3 36 25 6 15 29 72 51
126 23 54 41 100 41 102 0 1 -13 5 -29 7 -27 4 -30 1 -45 -49 -10 -30 -24 -68
-32 -86 -14 -30 -15 -27 -10 61 l5 92 -30 0 -29 0 1 -112z"/>
<path d="M3875 4280 c-7 -12 -57 -261 -53 -265 2 -1 17 -6 33 -9 l31 -7 24
123 c14 68 25 129 25 137 0 16 -52 34 -60 21z"/>
<path d="M3961 4193 c-11 -37 -26 -96 -34 -131 -17 -73 -21 -68 82 -92 44 -10
55 -10 62 1 16 26 9 36 -36 49 -37 10 -45 17 -45 36 0 20 5 24 30 24 25 0 30
4 30 24 0 16 -7 27 -20 31 -21 7 -24 14 -14 38 4 12 12 13 37 6 54 -15 74 -12
79 16 5 26 7 25 -72 45 -25 6 -53 13 -62 16 -13 4 -21 -9 -37 -63z"/>
<path d="M4142 4113 c-32 -97 -31 -112 5 -113 18 0 75 192 60 202 -25 16 -34
5 -65 -89z"/>
<path d="M4100 3970 c-9 -17 -7 -22 12 -29 18 -7 25 -5 32 11 7 14 6 22 -5 29
-21 13 -27 11 -39 -11z"/>
<path d="M2778 3885 c-15 -8 -31 -29 -37 -47 -5 -18 -170 -788 -367 -1712
-346 -1630 -356 -1680 -341 -1711 11 -22 27 -36 49 -43 18 -6 419 -92 890
-193 926 -196 898 -192 927 -136 6 12 173 784 371 1714 263 1239 357 1699 351
1715 -5 13 -17 31 -27 40 -13 11 -298 76 -892 202 -480 102 -878 186 -885 186
-6 -1 -24 -7 -39 -15z m299 -120 c268 -46 822 -170 841 -189 2 -3 2 -12 -2
-21 -6 -17 -11 -17 -226 21 -253 46 -685 144 -767 175 -25 9 -31 39 -9 39 8 0
81 -11 163 -25z m580 -266 c388 -82 715 -155 725 -160 11 -6 18 -21 18 -37 0
-25 -176 -861 -182 -868 -2 -1 -44 6 -93 17 -50 10 -389 82 -755 160 -366 77
-666 142 -667 143 -4 4 177 851 187 874 6 14 18 22 35 22 13 0 343 -68 732
-151z m-287 -925 c349 -74 681 -145 738 -157 64 -13 102 -26 102 -34 0 -30
-404 -1909 -413 -1920 -5 -7 -21 -13 -36 -13 -56 0 -1463 307 -1472 321 -5 8
-7 25 -4 39 6 32 393 1858 400 1888 4 17 11 21 28 17 12 -3 308 -66 657 -141z"/>
<path d="M3323 3440 c4 -15 0 -20 -13 -20 -30 0 -33 -18 -7 -35 13 -8 29 -27
35 -40 18 -38 55 -52 87 -31 46 30 23 106 -33 106 -12 0 -26 9 -32 20 -6 11
-18 20 -27 20 -10 0 -14 -6 -10 -20z"/>
<path d="M3900 3330 c-8 -5 -29 -7 -47 -4 -26 5 -37 1 -57 -20 -31 -30 -32
-36 -5 -70 24 -31 61 -34 86 -7 10 11 29 21 43 23 33 4 41 38 9 38 -22 0 -22
1 -4 13 10 8 15 19 11 25 -9 14 -16 15 -36 2z"/>
<path d="M3494 3305 c-9 -38 12 -100 43 -124 32 -26 94 -28 129 -5 28 19 54
63 54 94 0 32 -18 24 -39 -18 -18 -36 -54 -62 -85 -62 -31 0 -60 37 -65 85 -7
54 -27 70 -37 30z"/>
<path d="M3241 3268 c-39 -21 -48 -44 -31 -76 34 -61 145 -83 197 -38 24 21
26 27 18 51 -6 16 -22 37 -37 48 -33 24 -114 33 -147 15z"/>
<path d="M3780 3163 c-52 -20 -64 -66 -27 -100 56 -51 137 -59 184 -19 27 24
27 26 13 52 -8 15 -26 35 -40 45 -26 20 -104 33 -130 22z"/>
<path d="M3015 3064 c-26 -33 -31 -36 -68 -31 -22 3 -46 3 -53 0 -20 -8 -17
-41 7 -75 22 -30 20 -50 -7 -114 -3 -7 2 -19 11 -27 13 -14 21 -14 59 -3 43
13 45 13 80 -16 50 -41 70 -35 77 26 4 38 12 54 35 72 16 13 32 24 35 24 14 0
19 33 8 46 -6 8 -28 19 -48 25 -31 9 -38 17 -51 57 -20 62 -46 67 -85 16z m59
-49 c4 -20 12 -38 19 -40 74 -26 73 -25 52 -41 -49 -36 -55 -44 -55 -85 l0
-41 -36 27 c-35 27 -57 29 -106 10 -17 -7 -17 -5 -1 38 16 43 16 45 -5 75 -12
16 -22 33 -22 36 0 3 20 6 45 6 38 0 48 4 66 30 26 35 35 32 43 -15z"/>
<path d="M3496 2965 c-25 -32 -32 -35 -77 -35 -62 0 -72 -17 -40 -73 22 -38
23 -40 6 -84 -15 -39 -16 -47 -3 -59 12 -13 23 -13 61 -4 43 11 48 10 81 -15
50 -38 70 -31 74 27 3 40 8 51 35 69 68 47 68 77 -1 97 -34 10 -40 17 -53 59
-18 63 -45 68 -83 18z m64 -73 c0 -7 19 -21 41 -30 l41 -18 -36 -27 c-31 -24
-36 -34 -36 -68 0 -21 -3 -39 -6 -39 -3 0 -20 12 -37 26 -30 25 -39 26 -100 8
-16 -5 -17 -3 -1 35 15 39 15 42 -5 74 -29 47 -27 51 19 43 36 -6 41 -3 67 29
l28 35 12 -27 c7 -16 12 -34 13 -41z"/>
<path d="M3976 2865 c-24 -32 -32 -35 -75 -35 -70 0 -81 -18 -46 -71 l27 -41
-17 -45 c-16 -41 -16 -46 -2 -60 14 -14 22 -14 61 -3 45 12 46 12 81 -19 20
-17 39 -31 44 -31 16 0 28 25 35 70 6 38 14 50 47 72 57 40 51 63 -22 87 -31
10 -38 18 -50 59 -18 62 -45 67 -83 17z m54 -46 c9 -34 18 -44 51 -58 21 -9
39 -18 39 -21 -1 -3 -15 -14 -33 -25 -27 -17 -33 -27 -35 -63 -2 -23 -6 -42
-9 -42 -3 0 -19 11 -35 25 -17 14 -38 23 -47 21 -9 -3 -29 -8 -44 -12 l-28 -6
17 41 c15 39 15 42 -5 74 -12 19 -21 37 -21 40 0 3 17 3 39 0 35 -5 41 -2 67
31 16 20 30 36 31 36 1 0 7 -18 13 -41z"/>
<path d="M2741 2533 c-6 -21 -31 -136 -57 -256 -39 -184 -44 -221 -33 -232 8
-7 92 -30 188 -50 145 -31 175 -35 186 -24 19 19 121 507 109 519 -10 10 -329
80 -364 80 -14 0 -22 -10 -29 -37z m209 -273 c0 -8 -110 -43 -116 -37 -4 4 11
86 22 116 3 10 17 2 49 -29 25 -24 45 -47 45 -50z"/>
<path d="M3232 2458 c-14 -19 -114 -491 -107 -510 4 -10 58 -26 178 -51 95
-21 180 -37 189 -37 22 0 27 20 83 289 40 188 45 225 34 237 -11 10 -323 84
-358 84 -5 0 -13 -6 -19 -12z m355 -102 c-2 -6 -26 -112 -52 -236 -26 -124
-48 -226 -49 -227 -1 -2 -317 65 -327 69 -5 3 83 430 95 464 3 7 60 -1 170
-25 101 -21 165 -39 163 -45z"/>
<path d="M3316 2292 c-13 -21 -47 -205 -39 -213 9 -9 191 46 208 62 7 7 -17
35 -70 84 -82 76 -90 81 -99 67z m80 -94 l46 -42 -64 -22 c-34 -12 -64 -21
-65 -20 -6 5 22 126 29 126 5 0 29 -19 54 -42z"/>
<path d="M3712 2358 c-16 -21 -116 -508 -106 -518 10 -10 323 -80 359 -80 13
0 26 4 29 8 2 4 28 119 57 255 45 214 51 250 38 262 -8 7 -92 30 -187 49 -203
42 -177 39 -190 24z m163 -262 l50 -44 -65 -20 c-36 -11 -66 -19 -67 -18 -5 4
21 126 27 126 3 0 28 -20 55 -44z"/>
<path d="M2624 1989 c-3 -6 -2 -15 2 -19 13 -13 252 -63 269 -56 13 5 22 36
11 36 -3 0 -56 11 -120 25 -129 28 -152 30 -162 14z"/>
<path d="M2612 1898 c6 -17 349 -91 362 -78 5 5 7 12 4 15 -7 7 -322 75 -349
75 -12 0 -19 -5 -17 -12z"/>
<path d="M3104 1889 c-12 -20 12 -30 122 -54 128 -29 164 -31 164 -11 0 21 -6
23 -134 51 -131 28 -142 29 -152 14z"/>
<path d="M2590 1826 c0 -9 1 -16 3 -16 1 0 81 -18 177 -39 159 -35 212 -38
185 -12 -6 5 -80 23 -165 41 -85 17 -165 34 -177 37 -17 4 -23 1 -23 -11z"/>
<path d="M3090 1797 c0 -9 56 -25 173 -50 199 -42 197 -42 197 -22 0 8 -2 15
-5 15 -2 0 -79 16 -171 35 -186 39 -194 40 -194 22z"/>
<path d="M3584 1789 c-3 -6 -1 -16 5 -22 17 -17 264 -68 275 -57 23 23 -8 38
-131 63 -147 31 -140 30 -149 16z"/>
<path d="M3074 1728 c-11 -17 9 -24 166 -57 85 -18 165 -35 178 -38 27 -6 32
23 5 31 -72 22 -344 72 -349 64z"/>
<path d="M3570 1695 c0 -8 3 -15 6 -15 3 0 77 -16 165 -35 169 -37 199 -41
199 -26 0 16 -11 19 -185 56 -192 40 -185 40 -185 20z"/>
<path d="M2562 1657 c-12 -14 -112 -460 -112 -498 0 -10 5 -21 11 -25 16 -10
319 -74 351 -74 32 0 25 -22 88 275 45 211 49 241 35 251 -8 6 -84 25 -168 43
-84 18 -162 34 -173 37 -11 3 -26 -1 -32 -9z m161 -261 l49 -44 -64 -20 c-34
-11 -65 -18 -67 -16 -6 5 21 124 28 124 3 -1 28 -20 54 -44z"/>
<path d="M3552 1618 c5 -15 343 -92 366 -83 33 12 -9 27 -169 61 -180 37 -203
40 -197 22z"/>
<path d="M3031 1538 c-4 -13 -30 -126 -56 -252 -34 -160 -45 -233 -38 -244 10
-17 346 -94 369 -85 17 6 15 -1 73 271 28 128 47 240 44 248 -6 16 2 14 -190
54 -174 36 -191 37 -202 8z m169 -243 c31 -32 39 -46 29 -49 -67 -25 -103 -36
-106 -32 -7 6 19 126 26 126 4 0 27 -20 51 -45z"/>
<path d="M3516 1451 c-8 -12 -106 -478 -106 -501 0 -22 5 -24 223 -71 126 -27
151 -30 162 -18 16 17 117 492 109 513 -6 15 -23 20 -222 61 -133 27 -158 30
-166 16z m187 -55 c87 -19 161 -37 164 -40 3 -3 -16 -109 -43 -236 -36 -171
-53 -230 -63 -230 -14 0 -313 61 -318 65 -2 1 17 96 42 211 25 115 48 221 51
237 3 15 6 27 7 27 1 0 73 -15 160 -34z"/>
<path d="M3586 1218 c-24 -107 -29 -145 -20 -150 10 -6 200 55 212 67 8 8
-147 154 -164 155 -7 0 -19 -33 -28 -72z m89 -19 c25 -23 45 -45 45 -48 0 -9
-110 -44 -117 -38 -5 6 17 127 24 127 2 0 24 -19 48 -41z"/>
<path d="M2434 1086 c-4 -9 -4 -20 0 -23 13 -13 270 -63 279 -54 24 24 -5 39
-115 61 -62 13 -123 25 -135 28 -15 3 -25 -1 -29 -12z"/>
<path d="M2415 1001 c-9 -16 9 -21 173 -57 172 -37 206 -41 200 -21 -3 7 -76
28 -174 49 -190 41 -191 42 -199 29z"/>
<path d="M2914 985 c-4 -9 -3 -20 2 -25 5 -4 67 -20 138 -35 93 -20 131 -24
139 -16 21 21 -15 39 -119 59 -55 12 -112 24 -127 27 -20 5 -28 3 -33 -10z"/>
<path d="M2400 916 c0 -9 46 -23 148 -45 213 -46 222 -47 222 -27 0 9 -1 16
-3 16 -1 0 -78 16 -170 35 -188 39 -197 40 -197 21z"/>
<path d="M2895 899 c-4 -6 -4 -13 -1 -16 13 -13 362 -81 370 -73 5 5 7 13 3
16 -5 5 -347 84 -364 84 -1 0 -5 -5 -8 -11z"/>
<path d="M3390 875 c0 -20 20 -26 158 -55 89 -18 115 -21 125 -11 20 21 -14
36 -130 60 -129 25 -153 26 -153 6z"/>
<path d="M2875 821 c-9 -15 7 -20 175 -57 177 -38 200 -40 200 -21 0 10 -54
25 -173 50 -191 41 -193 41 -202 28z"/>
<path d="M3374 798 c-4 -5 -2 -13 2 -17 18 -16 357 -82 368 -71 5 5 7 13 3 16
-14 14 -367 82 -373 72z"/>
<path d="M3360 715 c0 -17 -4 -15 202 -60 141 -31 190 -32 163 -6 -8 7 -333
81 -358 81 -4 0 -7 -7 -7 -15z"/>
</g>
</svg>
