<?xml version="1.0" standalone="no"?>
<!DOCTYPE svg PUBLIC "-//W3C//DTD SVG 20010904//EN"
 "http://www.w3.org/TR/2001/REC-SVG-20010904/DTD/svg10.dtd">
<svg version="1.0" xmlns="http://www.w3.org/2000/svg"
 width="512.000000pt" height="512.000000pt" viewBox="0 0 512.000000 512.000000"
 preserveAspectRatio="xMidYMid meet">

<g transform="translate(0.000000,512.000000) scale(0.100000,-0.100000)"
fill="#000000" stroke="none">
<path d="M1212 4708 c-34 -17 -38 -54 -14 -148 31 -119 65 -142 140 -94 35 23
37 41 19 127 -21 104 -37 127 -85 126 -20 0 -47 -5 -60 -11z m84 -73 c8 -20
17 -55 20 -79 6 -39 4 -45 -16 -51 -27 -8 -43 6 -59 54 -14 44 -14 84 1 99 21
21 39 13 54 -23z"/>
<path d="M1060 4668 c-36 -11 -66 -21 -68 -23 -1 -1 2 -15 8 -30 8 -20 15 -26
30 -22 24 6 37 -16 71 -121 20 -64 25 -71 43 -66 39 12 39 22 6 113 -32 89
-33 111 -4 111 15 0 18 18 8 44 -8 20 -14 20 -94 -6z"/>
<path d="M840 4580 c-10 -6 -13 -22 -11 -49 2 -33 0 -40 -13 -35 -8 3 -22 16
-30 30 -14 21 -19 22 -41 12 l-26 -12 51 -51 c41 -41 50 -57 50 -85 0 -19 3
-52 6 -72 6 -34 8 -36 30 -26 24 11 24 13 24 155 0 147 -3 157 -40 133z"/>
<path d="M603 4470 c-18 -11 -33 -25 -33 -31 0 -12 90 -181 112 -212 13 -18
15 -18 53 4 51 30 55 35 55 87 0 52 -28 110 -70 146 -38 31 -73 33 -117 6z
m111 -79 c21 -23 18 -75 -4 -79 -16 -3 -64 81 -53 92 12 12 40 6 57 -13z"/>
<path d="M455 4386 c-19 -13 -18 -16 14 -112 17 -55 39 -114 46 -132 14 -32
15 -33 39 -17 21 14 23 20 15 41 -18 49 -2 60 37 23 18 -17 26 -19 43 -10 12
7 21 15 21 19 0 4 -44 51 -98 105 -90 90 -99 96 -117 83z m95 -128 c0 -4 -4
-10 -10 -13 -8 -5 -40 54 -40 74 0 8 49 -52 50 -61z"/>
<path d="M292 4274 l-63 -46 17 -27 c28 -44 128 -182 135 -186 9 -6 129 78
129 91 0 6 -6 17 -14 23 -12 10 -23 7 -56 -15 -39 -26 -41 -26 -55 -8 -13 17
-12 21 5 35 17 15 17 18 4 38 -13 17 -19 19 -36 10 -16 -9 -24 -8 -36 5 -15
15 -15 17 3 30 11 7 31 22 43 33 23 18 23 19 5 41 l-18 23 -63 -47z"/>
<path d="M1283 4292 c-10 -6 -5 -31 19 -105 18 -53 37 -97 43 -97 33 1 34 17
4 113 -29 93 -39 106 -66 89z"/>
<path d="M1196 4257 c-16 -12 -16 -15 -1 -51 9 -21 14 -45 11 -52 -11 -28 -37
-13 -56 31 -21 49 -22 50 -50 35 -18 -9 -16 -17 32 -134 44 -107 53 -123 70
-118 28 7 31 23 13 65 -20 47 -19 54 5 60 17 4 24 -4 41 -44 23 -53 26 -55 53
-36 17 13 15 20 -34 135 -29 67 -55 122 -59 122 -4 0 -15 -6 -25 -13z"/>
<path d="M2220 4066 c-443 -95 -815 -178 -826 -184 -43 -23 -45 -58 -11 -216
26 -126 28 -149 16 -160 -11 -10 -943 -578 -1091 -665 -31 -18 -58 -60 -58
-92 0 -21 1223 -2052 1263 -2096 45 -51 39 -54 796 404 388 235 718 440 734
455 28 27 35 65 18 97 -9 16 11 22 217 65 319 66 330 70 347 110 13 30 8 62
-71 431 -46 219 -84 405 -84 413 0 9 20 -4 48 -30 97 -90 221 -159 368 -205
82 -25 102 -27 254 -27 151 0 173 3 255 28 321 98 557 341 642 663 31 120 36
304 11 418 -81 361 -367 647 -720 719 -97 20 -285 21 -375 1 -234 -49 -431
-177 -568 -370 -44 -62 -114 -193 -116 -217 -2 -30 -21 51 -74 302 -31 146
-60 275 -66 286 -13 25 -50 45 -82 43 -12 -1 -384 -79 -827 -173z m2163 80
c162 -48 285 -124 401 -246 l68 -73 -39 -25 -40 -26 1 -99 1 -100 -150 -63
c-82 -35 -155 -64 -162 -64 -7 0 -19 13 -27 28 -19 37 -84 96 -134 121 -89 45
-217 46 -316 2 -60 -26 -140 -102 -166 -157 -12 -24 -27 -44 -33 -44 -7 0 -72
16 -146 35 -74 19 -136 35 -138 35 -2 0 -3 -22 -3 -48 l0 -48 124 -17 c181
-26 166 -18 166 -96 l0 -67 -122 -39 c-68 -21 -124 -39 -126 -40 -1 -1 6 -20
15 -43 l18 -41 119 51 c112 49 119 50 129 32 25 -44 100 -112 154 -140 53 -27
67 -29 163 -29 96 0 110 3 158 28 67 35 124 94 158 163 19 39 31 53 43 50 9
-3 63 -17 120 -31 58 -14 106 -27 108 -29 2 -2 -5 -28 -17 -57 -11 -30 -20
-59 -20 -66 0 -6 52 -39 115 -73 63 -33 115 -65 115 -70 0 -22 -106 -164 -163
-216 -334 -313 -830 -333 -1185 -48 -107 86 -117 102 -145 238 l-24 117 21 11
c12 6 23 12 25 14 2 1 -5 23 -14 48 -12 30 -24 46 -38 48 -18 3 -25 22 -53
153 -18 83 -33 156 -33 164 -1 10 8 12 33 7 34 -7 35 -6 41 31 4 21 9 46 11
55 4 14 -7 21 -55 35 -70 21 -69 12 -15 137 116 265 348 448 650 511 107 22
296 13 407 -19z m-1165 -503 c79 -377 191 -906 303 -1428 81 -377 87 -416 68
-432 -17 -13 -1610 -353 -1657 -353 -38 0 -44 11 -66 120 -8 41 -90 426 -181
855 -91 429 -187 878 -212 998 -25 119 -44 219 -42 221 2 2 62 16 133 31 123
26 129 27 139 9 47 -84 209 -144 392 -144 364 0 738 185 779 385 7 30 8 31
129 57 67 14 127 26 132 27 6 1 43 -155 83 -346z m-818 268 c38 -71 -43 -161
-145 -161 -40 0 -52 5 -81 34 -42 42 -47 89 -11 107 43 24 103 38 164 38 52 1
64 -2 73 -18z m248 -31 c53 -33 39 -89 -31 -121 -71 -32 -144 -21 -165 25 -35
77 110 148 196 96z m-530 -116 c43 -30 22 -88 -45 -123 -32 -16 -115 -14 -141
5 -42 29 -23 86 43 122 30 17 117 15 143 -4z m2662 -321 c0 -54 -21 -208 -30
-224 -7 -10 -31 -9 -130 8 -67 12 -123 23 -124 25 -2 1 -6 33 -9 70 l-6 67
132 45 c166 56 167 56 167 9z m-590 -58 c81 -42 78 -160 -6 -200 -74 -35 -154
17 -154 100 0 88 83 140 160 100z m-2716 -163 c3 -5 8 -31 12 -60 l6 -51 -48
-30 c-105 -67 -198 -10 -132 81 33 47 144 88 162 60z m-450 -301 c39 -43 -19
-127 -105 -152 -54 -17 -93 2 -97 47 -8 83 148 165 202 105z m356 -426 c69
-35 109 -76 142 -142 27 -54 32 -77 32 -133 0 -117 -64 -219 -174 -275 -51
-26 -165 -32 -228 -11 -64 22 -135 84 -170 150 -23 44 -27 63 -27 136 0 73 4
92 27 136 32 61 104 127 161 148 57 21 189 16 237 -9z m190 -1080 c0 -55 16
-102 47 -137 20 -23 10 -48 -15 -41 -28 7 -81 61 -88 90 -14 54 16 143 48 143
4 0 8 -25 8 -55z"/>
<path d="M4046 4034 c-17 -16 -21 -61 -8 -80 13 -20 48 -33 71 -27 31 8 54 55
42 86 -15 39 -76 51 -105 21z"/>
<path d="M4207 3943 c-15 -15 -6 -82 16 -114 28 -42 74 -57 117 -39 40 16 82
67 78 94 -4 27 -20 25 -35 -5 -31 -62 -100 -79 -130 -33 -10 16 -16 43 -16 65
2 37 -12 51 -30 32z"/>
<path d="M4497 3912 c-25 -28 -21 -67 9 -91 15 -12 33 -21 41 -21 21 0 63 46
63 70 0 50 -79 80 -113 42z"/>
<path d="M3960 3890 c-24 -24 -25 -29 -4 -59 49 -70 190 -64 182 7 -7 61 -133
97 -178 52z"/>
<path d="M4444 3781 c-71 -31 -1 -124 92 -124 57 0 82 21 68 59 -5 15 -20 35
-34 45 -30 22 -97 32 -126 20z"/>
<path d="M2975 3561 c-28 -6 -30 -9 -27 -50 1 -23 16 -102 33 -174 16 -73 34
-152 39 -177 14 -59 21 -65 72 -54 42 9 43 10 41 49 -2 22 -6 47 -9 55 -4 8
-7 22 -8 30 -1 8 -16 86 -35 173 -38 172 -33 164 -106 148z m74 -165 c17 -76
28 -143 25 -147 -3 -5 -13 -9 -23 -9 -14 0 -22 22 -44 128 -32 150 -32 159 -9
164 9 3 18 4 19 4 1 -1 15 -64 32 -140z m51 -236 c0 -13 -7 -20 -20 -20 -13 0
-20 7 -20 20 0 13 7 20 20 20 13 0 20 -7 20 -20z"/>
<path d="M2843 3528 c-38 -8 -43 -13 -49 -43 l-6 -35 -20 25 c-22 28 -35 30
-90 14 -27 -7 -38 -15 -38 -29 0 -33 81 -404 91 -416 7 -8 22 -9 52 -3 70 16
67 11 46 91 -23 90 -23 87 1 81 12 -3 20 0 20 8 0 29 14 -5 29 -73 l17 -73 49
3 c27 1 53 6 57 10 5 5 -12 107 -37 227 -25 120 -45 220 -45 222 0 5 -32 1
-77 -9z m89 -213 c21 -99 37 -186 38 -192 0 -7 -11 -13 -24 -13 -22 0 -26 8
-51 110 -17 68 -32 110 -40 110 -15 0 -25 -22 -25 -53 -1 -21 -2 -20 -21 6
-19 25 -49 37 -49 20 0 -15 38 -188 45 -204 4 -12 -1 -18 -21 -23 -14 -4 -28
-6 -29 -4 -3 3 -75 340 -78 367 -1 8 11 18 26 22 25 7 31 3 55 -32 35 -50 54
-47 64 10 8 48 21 63 53 59 17 -3 24 -26 57 -183z"/>
<path d="M2419 3437 c-55 -36 -71 -78 -66 -172 6 -114 32 -199 77 -246 33 -35
42 -39 86 -39 96 0 164 62 164 149 -1 62 -35 216 -58 255 -43 74 -136 98 -203
53z m153 -46 c31 -35 52 -98 69 -210 11 -71 10 -82 -5 -106 -22 -34 -74 -65
-108 -65 -71 0 -107 47 -133 170 -19 90 -19 141 0 186 28 68 125 82 177 25z"/>
<path d="M2455 3345 c-21 -20 -25 -34 -25 -80 0 -63 31 -164 57 -182 29 -22
70 -16 93 15 19 23 21 35 16 88 -16 155 -77 224 -141 159z m83 -53 c17 -41 32
-137 25 -160 -7 -30 -43 -39 -60 -16 -19 26 -43 111 -43 151 0 41 34 80 55 63
7 -6 18 -23 23 -38z"/>
<path d="M2095 3370 c-45 -29 -65 -75 -65 -146 0 -132 44 -258 102 -294 94
-57 228 16 228 125 0 55 -34 215 -54 252 -8 17 -29 42 -46 57 -40 33 -119 36
-165 6z m136 -27 c38 -23 57 -65 81 -182 23 -113 18 -151 -23 -185 -62 -53
-131 -44 -176 22 -39 59 -64 223 -43 286 22 67 100 95 161 59z"/>
<path d="M2131 3274 c-26 -33 -28 -110 -5 -182 30 -92 80 -117 131 -66 24 24
25 30 19 89 -7 72 -29 141 -53 167 -24 27 -68 23 -92 -8z m76 -30 c19 -30 45
-151 37 -177 -9 -28 -40 -40 -58 -21 -41 40 -58 194 -24 215 20 13 26 11 45
-17z"/>
<path d="M1742 3303 c-24 -8 -46 -21 -49 -29 -5 -12 53 -310 78 -396 5 -21 15
-38 22 -39 68 -6 181 26 216 62 49 49 47 131 -4 179 -22 21 -25 29 -19 72 8
62 -16 120 -61 148 -39 24 -120 26 -183 3z m165 -33 c38 -23 54 -70 43 -130
-7 -39 -5 -45 26 -80 26 -28 34 -46 34 -74 0 -62 -45 -93 -165 -111 l-40 -7
-42 194 c-22 106 -39 195 -38 196 2 2 21 10 42 17 54 20 103 18 140 -5z"/>
<path d="M1802 3218 c-15 -15 -15 -48 -2 -82 19 -51 110 -23 110 34 0 48 -75
81 -108 48z m63 -32 c16 -12 17 -16 6 -30 -18 -22 -38 -20 -46 4 -12 37 8 50
40 26z"/>
<path d="M1843 3053 c-16 -6 -17 -67 -3 -94 23 -41 110 -9 110 40 0 38 -66 71
-107 54z m51 -29 c21 -8 21 -40 0 -48 -22 -9 -34 1 -34 30 0 25 7 28 34 18z"/>
<path d="M2813 2909 c-27 -10 -30 -22 -39 -143 -6 -95 -8 -99 -35 -115 -150
-84 -164 -95 -164 -131 0 -34 1 -35 90 -72 50 -21 97 -42 105 -47 9 -5 23 -48
36 -109 23 -111 34 -132 70 -132 25 0 38 12 117 108 l52 63 65 -8 c36 -4 90
-8 120 -8 48 0 56 3 66 24 15 28 9 41 -61 150 l-45 69 46 98 c71 154 53 179
-105 139 -55 -14 -104 -25 -108 -25 -5 0 -43 31 -84 68 -82 76 -94 83 -126 71z
m112 -104 c47 -41 88 -75 92 -75 5 0 51 11 103 25 52 14 101 25 108 25 20 0
14 -23 -28 -115 -22 -48 -40 -94 -40 -103 0 -9 25 -59 56 -110 32 -53 53 -97
48 -101 -5 -5 -55 -3 -111 3 -56 7 -110 9 -120 5 -10 -4 -45 -41 -78 -83 -33
-41 -67 -75 -76 -76 -12 0 -21 25 -38 102 -12 57 -28 109 -36 118 -8 8 -56 31
-107 51 -51 20 -93 42 -93 49 0 7 40 36 90 64 51 30 95 63 102 77 7 13 13 51
13 84 0 76 10 135 22 135 5 0 47 -34 93 -75z"/>
<path d="M2856 2764 c-3 -9 -6 -39 -6 -67 0 -29 -4 -57 -8 -63 -4 -6 -33 -26
-65 -44 -38 -21 -57 -38 -55 -48 2 -9 32 -28 68 -44 l65 -27 11 -54 c21 -106
33 -111 96 -36 l43 51 72 -7 c92 -9 98 2 49 84 l-36 59 30 63 c39 84 31 94
-61 72 l-67 -16 -53 46 c-57 50 -73 56 -83 31z"/>
<path d="M2167 2765 c-62 -50 -71 -52 -147 -29 -100 29 -122 -5 -75 -116 l25
-59 -40 -62 c-22 -34 -40 -70 -40 -80 0 -35 36 -48 115 -42 l72 6 43 -56 c72
-96 109 -88 136 27 l17 75 66 24 c81 30 107 63 76 97 -10 11 -43 34 -72 51
l-53 30 0 70 c0 56 -4 73 -20 89 -29 29 -41 25 -103 -25z m84 -47 c2 -96 8
-108 74 -148 33 -20 60 -42 60 -49 0 -7 -31 -25 -70 -40 l-70 -26 -20 -78
c-11 -42 -24 -77 -30 -77 -5 0 -32 27 -58 61 l-49 60 -79 -7 c-94 -8 -96 -4
-44 73 19 29 35 62 35 73 0 11 -12 48 -26 81 -14 34 -23 64 -19 67 3 3 34 -2
69 -11 36 -9 73 -17 83 -17 10 1 41 21 68 45 28 25 56 45 63 45 8 0 12 -18 13
-52z"/>
<path d="M2152 2654 c-29 -23 -35 -24 -67 -14 -55 18 -69 -3 -41 -59 14 -26
13 -31 -10 -65 -14 -20 -22 -41 -19 -46 3 -6 26 -10 51 -10 38 0 49 -5 71 -30
34 -41 49 -38 62 13 9 38 16 46 51 60 49 19 51 38 5 63 -29 15 -35 24 -35 50
0 69 -17 78 -68 38z"/>
<path d="M2465 2258 c-15 -18 -44 -51 -65 -74 l-38 -41 -92 14 c-98 14 -124 9
-135 -28 -5 -14 8 -45 44 -105 l50 -84 -41 -85 c-42 -88 -45 -129 -11 -142 9
-4 58 2 109 12 l93 18 75 -66 c40 -37 80 -67 88 -67 37 0 50 25 61 125 l12
100 85 46 c75 40 85 49 88 76 4 37 -3 43 -101 83 -86 35 -90 41 -102 130 -9
64 -21 102 -38 112 -25 16 -56 7 -82 -24z m86 -101 c9 -49 22 -94 30 -102 8
-7 50 -29 94 -49 44 -19 80 -40 80 -45 0 -6 -38 -33 -84 -59 -95 -53 -96 -54
-106 -174 -4 -43 -11 -78 -17 -78 -5 0 -44 30 -84 67 l-75 66 -82 -17 c-45 -9
-90 -19 -99 -22 -28 -8 -22 28 17 106 19 38 35 78 35 87 0 10 -20 53 -45 95
-25 43 -45 82 -45 88 0 13 24 13 111 -1 39 -6 80 -8 92 -5 12 3 47 35 77 71
30 36 62 64 70 63 10 -2 20 -30 31 -91z"/>
<path d="M2437 2115 l-38 -44 -70 6 c-82 7 -86 0 -39 -76 l31 -50 -26 -50
c-26 -52 -31 -76 -17 -85 4 -2 34 2 66 9 l59 14 50 -45 c27 -25 55 -43 61 -41
6 2 16 34 21 71 l10 67 50 27 c71 38 70 56 -3 88 -59 25 -60 26 -66 75 -13 95
-30 101 -89 34z"/>
<path d="M1316 2368 c-21 -30 -4 -60 32 -56 30 3 42 39 22 64 -17 20 -36 17
-54 -8z"/>
<path d="M1390 2311 c-36 -35 -41 -86 -10 -96 25 -8 72 17 89 48 36 68 -23
104 -79 48z"/>
<path d="M1091 2151 c-14 -25 -5 -48 20 -56 27 -9 51 13 47 44 -4 34 -51 43
-67 12z"/>
<path d="M1184 2101 c-62 -38 -62 -123 0 -107 56 14 95 83 64 114 -16 16 -28
15 -64 -7z"/>
<path d="M954 4166 c-57 -25 -57 -61 -1 -176 33 -66 47 -86 66 -88 79 -12 137
61 101 128 -9 16 -14 18 -33 9 -19 -8 -22 -17 -19 -41 4 -27 2 -29 -19 -26
-18 2 -31 18 -52 61 -15 32 -25 62 -22 68 10 14 42 11 49 -6 3 -8 11 -15 18
-15 52 1 47 63 -7 86 -41 17 -42 17 -81 0z"/>
<path d="M102 4134 c-23 -19 -42 -40 -42 -45 0 -5 39 -54 87 -109 l87 -99 23
21 22 21 -25 31 c-31 36 -20 43 32 21 34 -14 39 -14 61 0 31 21 23 32 -41 50
l-53 16 4 43 c5 38 2 45 -22 64 -42 33 -84 28 -133 -14z m95 -40 c3 -8 -2 -23
-11 -32 -15 -15 -17 -15 -32 0 -21 21 -11 48 16 48 11 0 23 -7 27 -16z"/>
<path d="M791 4075 c-35 -19 -65 -36 -68 -38 -2 -3 2 -16 8 -31 9 -18 18 -25
28 -21 9 4 20 7 25 8 6 1 31 -35 57 -81 25 -45 49 -85 52 -88 3 -3 16 2 30 11
l25 16 -49 87 c-27 48 -49 90 -49 94 0 4 9 10 20 13 25 8 25 17 3 44 l-18 21
-64 -35z"/>
<path d="M1357 4073 c-15 -14 -7 -43 12 -43 24 0 33 13 25 34 -6 16 -25 21
-37 9z"/>
<path d="M646 3987 c-18 -13 -15 -24 66 -239 11 -32 17 -33 43 -15 15 12 16
19 7 45 -14 41 0 49 37 21 24 -18 32 -19 51 -9 22 12 19 15 -76 111 -54 54
-101 99 -104 99 -4 0 -14 -6 -24 -13z m97 -129 c-8 -15 -20 -8 -31 17 -20 42
-13 52 12 20 13 -16 22 -33 19 -37z"/>
<path d="M562 3934 l-22 -15 33 -52 c51 -81 53 -84 30 -64 -26 23 -36 22 -23
-4 23 -42 2 -28 -39 26 -23 30 -45 55 -49 55 -4 0 -15 -7 -25 -14 -17 -13 -16
-16 14 -53 83 -98 153 -162 165 -152 9 8 10 18 3 35 -13 36 -12 38 17 19 14
-9 32 -14 41 -11 15 6 15 7 -87 183 -35 61 -37 62 -58 47z"/>
<path d="M4453 2082 c-68 -27 -1679 -1082 -1729 -1132 -91 -91 -129 -192 -122
-329 3 -71 10 -99 36 -154 98 -211 357 -309 564 -214 29 13 195 116 368 229
173 112 504 328 735 478 657 427 612 396 641 446 36 62 46 121 31 181 -15 55
-232 397 -286 450 -36 35 -112 63 -165 62 -17 0 -50 -8 -73 -17z m183 -133
c55 -72 145 -214 164 -258 18 -43 4 -51 -26 -16 -64 78 -204 303 -204 330 0
18 25 -3 66 -56z m-400 -234 c34 -55 37 -75 9 -75 -19 0 -89 105 -80 119 14
23 37 9 71 -44z m352 -31 c26 -18 28 -50 5 -76 -31 -35 -83 -12 -83 37 0 20
32 55 50 55 3 0 16 -7 28 -16z m-522 -79 c35 -56 37 -75 6 -75 -20 0 -87 104
-77 120 14 22 37 7 71 -45z m300 -89 c35 -53 38 -76 9 -76 -19 0 -89 105 -80
119 14 23 36 9 71 -43z m-470 -22 c30 -47 34 -58 23 -70 -8 -7 -19 -10 -25 -6
-20 12 -76 111 -69 122 14 22 37 7 71 -46z m300 -89 c34 -55 37 -75 9 -75 -19
0 -89 105 -80 119 14 23 37 9 71 -44z m-471 -21 c28 -43 33 -59 25 -69 -6 -8
-17 -12 -24 -9 -18 7 -79 111 -71 123 14 23 36 9 70 -45z m771 -68 c35 -53 38
-76 9 -76 -19 0 -89 105 -80 119 14 23 36 9 71 -43z m-470 -22 c30 -47 34 -58
23 -70 -8 -7 -19 -10 -25 -6 -20 12 -76 111 -69 122 14 22 37 7 71 -46z m-471
-20 c30 -47 34 -59 23 -70 -7 -7 -18 -10 -24 -6 -21 13 -73 104 -67 118 10 27
33 13 68 -42z m771 -68 c35 -53 38 -76 9 -76 -19 0 -89 105 -80 119 14 23 36
9 71 -43z m-471 -22 c30 -47 34 -59 23 -70 -7 -7 -18 -10 -24 -6 -20 12 -76
111 -69 122 14 22 36 7 70 -46z m301 -89 c34 -55 37 -75 9 -75 -19 0 -89 105
-80 119 14 23 37 9 71 -44z m-471 -21 c30 -47 34 -59 23 -70 -7 -7 -18 -10
-24 -6 -21 13 -73 104 -67 118 10 27 33 13 68 -42z m-240 -1 c34 -47 42 -83
18 -90 -16 -6 -87 102 -80 122 10 25 25 17 62 -32z m541 -89 c30 -47 34 -58
23 -70 -8 -7 -19 -10 -25 -6 -20 12 -76 111 -69 122 14 22 37 7 71 -46z m-869
-27 c-2 -7 -10 -37 -16 -67 -18 -87 -60 -102 -183 -64 -10 3 -18 9 -18 13 0
19 74 91 112 110 48 24 113 29 105 8z m199 -73 c30 -38 54 -96 54 -129 0 -29
3 -29 -75 -10 -59 14 -95 42 -95 75 0 16 17 96 25 118 7 18 60 -13 91 -54z
m499 -10 c30 -47 34 -59 23 -70 -7 -7 -18 -10 -24 -6 -20 12 -76 111 -69 122
14 22 36 7 70 -46z m-240 -1 c34 -47 42 -83 18 -90 -16 -6 -87 102 -80 122 10
25 25 17 62 -32z m-622 -168 c33 -7 60 -15 61 -17 35 -54 34 -52 19 -121 -8
-37 -18 -67 -22 -67 -4 0 -26 16 -48 35 -43 36 -77 96 -87 153 -6 37 -6 37 77
17z m360 -76 c40 -11 40 -11 -1 -66 -27 -37 -113 -83 -154 -83 -32 0 -32 3
-15 78 21 89 51 102 170 71z"/>
</g>
</svg>
